# xmcd CD database file
# Copyright (C) 1995-1998 Ti Kan
#
# Track frame offsets:
#	150
#	11132
#	20407
#	28170
#	39195
#	47710
#	59272
#	67905
#	78412
#	88645
#	96760
#	107597
#	120382
#	129232
#
# Disc length: 1840 seconds
#
# Revision: 1
# Processed by: cddbd v1.4b42PL1 Copyright (c) Steve Scherf et al.
# Submitted via: CDex 1.30Release
#
DISCID=a5072e0e
DTITLE=Roger Miller - Country Gold
DYEAR=1995
DGENRE=Country
TTITLE0=King of the Road
TTITLE1=Chug-A-lug
TTITLE2=Dang Me
TTITLE3=Husbands and Wives
TTITLE4=You Can't Rollerskate in a Buffalo Herd
TTITLE5=Walkin' in the Sunshine
TTITLE6=England Swings
TTITLE7=Kansas City Star
TTITLE8=Engine, Engine #9
TTITLE9=Do-Wacka-Do
TTITLE10=Another Bridge to Burn
TTITLE11=Heartaches by the Number
TTITLE12=My Uncle Used to Love Me But She Died
TTITLE13=Billy Bayou
EXTD=YEAR: 1995 ID3G:   2
EXTT0=
EXTT1=
EXTT2=
EXTT3=
EXTT4=
EXTT5=
EXTT6=
EXTT7=
EXTT8=
EXTT9=
EXTT10=
EXTT11=
EXTT12=
EXTT13=
PLAYORDER=
